<?xml version="1.0" encoding="utf-8"?>
<svg viewBox="504.2 120 40 40" xmlns="http://www.w3.org/2000/svg">
  <g style="" transform="matrix(1.1602640151977541, 0, 0, 1.160264015197754, -110.76246914921262, -28.84759965788136)">
    <path d="M 570 140 L 690 140 L 690 180 L 570 180 Z M 661.799 170.003 C 662.191 169.676 662.387 169.252 662.387 168.729 C 662.387 168.318 662.256 167.936 661.995 167.581 L 655.757 159.333 L 661.855 153.497 C 662.191 153.161 662.359 152.797 662.359 152.405 C 662.359 152.032 662.214 151.663 661.925 151.299 C 661.636 150.935 661.267 150.753 660.819 150.753 C 660.334 150.753 659.876 150.968 659.447 151.397 L 650.487 160.224 L 650.487 152.601 C 650.487 152.116 650.333 151.71 650.025 151.383 C 649.717 151.056 649.302 150.893 648.779 150.893 C 648.256 150.893 647.827 151.056 647.491 151.383 C 647.155 151.71 646.987 152.116 646.987 152.601 L 646.987 168.785 C 646.987 169.27 647.146 169.676 647.463 170.003 C 647.78 170.33 648.2 170.493 648.723 170.493 C 649.264 170.493 649.694 170.33 650.011 170.003 C 650.328 169.676 650.487 169.27 650.487 168.785 L 650.487 164.377 L 653.137 161.84 L 659.223 169.849 C 659.54 170.278 659.96 170.493 660.483 170.493 C 660.968 170.493 661.407 170.33 661.799 170.003 Z M 640.947 151.033 C 640.163 150.846 639.36 150.753 638.539 150.753 C 637.083 150.753 635.739 151 634.507 151.495 C 633.275 151.99 632.206 152.68 631.301 153.567 C 630.396 154.454 629.696 155.504 629.201 156.717 C 628.706 157.93 628.459 159.256 628.459 160.693 C 628.459 162.354 628.73 163.815 629.271 165.075 C 629.812 166.335 630.554 167.385 631.497 168.225 C 632.44 169.065 633.513 169.7 634.717 170.129 C 635.921 170.558 637.195 170.773 638.539 170.773 C 639.08 170.773 639.612 170.731 640.135 170.647 C 640.658 170.563 641.176 170.442 641.689 170.283 C 642.202 170.124 642.702 169.924 643.187 169.681 C 643.654 169.457 643.938 169.098 644.041 168.603 C 644.144 168.108 644.008 167.628 643.635 167.161 C 643.374 166.825 643.052 166.629 642.669 166.573 C 642.286 166.517 641.899 166.582 641.507 166.769 C 641.04 167.012 640.555 167.18 640.051 167.273 C 639.547 167.366 639.043 167.413 638.539 167.413 C 637.624 167.413 636.775 167.278 635.991 167.007 C 635.207 166.736 634.526 166.321 633.947 165.761 C 633.368 165.201 632.916 164.501 632.589 163.661 C 632.262 162.821 632.099 161.832 632.099 160.693 C 632.099 159.722 632.244 158.836 632.533 158.033 C 632.822 157.23 633.247 156.535 633.807 155.947 C 634.367 155.359 635.044 154.906 635.837 154.589 C 636.63 154.272 637.531 154.113 638.539 154.113 C 639.08 154.113 639.598 154.169 640.093 154.281 C 640.588 154.393 641.059 154.552 641.507 154.757 C 641.899 154.944 642.286 155.018 642.669 154.981 C 643.052 154.944 643.364 154.757 643.607 154.421 C 643.962 153.992 644.097 153.516 644.013 152.993 C 643.929 152.47 643.644 152.088 643.159 151.845 C 642.468 151.49 641.731 151.22 640.947 151.033 Z M 614.288 166.097 L 622.638 166.097 L 624.092 169.485 C 624.241 169.84 624.451 170.12 624.722 170.325 C 624.993 170.53 625.296 170.633 625.632 170.633 C 626.024 170.633 626.383 170.484 626.71 170.185 C 627.037 169.886 627.2 169.485 627.2 168.981 C 627.2 168.776 627.153 168.552 627.06 168.309 L 620.172 151.901 C 620.041 151.546 619.831 151.271 619.542 151.075 C 619.253 150.879 618.94 150.781 618.604 150.781 C 618.249 150.744 617.918 150.828 617.61 151.033 C 617.302 151.238 617.073 151.528 616.924 151.901 L 609.952 168.645 C 609.896 168.832 609.868 169.009 609.868 169.177 C 609.868 169.588 609.989 169.933 610.232 170.213 C 610.475 170.493 610.848 170.633 611.352 170.633 C 611.669 170.633 611.963 170.535 612.234 170.339 C 612.505 170.143 612.705 169.868 612.836 169.513 Z M 621.256 162.877 L 615.658 162.877 L 618.444 156.324 Z M 603.535 170.003 C 603.88 169.676 604.053 169.27 604.053 168.785 L 604.053 154.113 L 608.449 154.113 C 608.934 154.113 609.34 153.968 609.667 153.679 C 609.994 153.39 610.157 153.002 610.157 152.517 C 610.157 152.032 609.994 151.64 609.667 151.341 C 609.34 151.042 608.934 150.893 608.449 150.893 L 596.017 150.893 C 595.532 150.893 595.126 151.038 594.799 151.327 C 594.472 151.616 594.309 152.004 594.309 152.489 C 594.309 152.974 594.472 153.366 594.799 153.665 C 595.126 153.964 595.532 154.113 596.017 154.113 L 600.413 154.113 L 600.413 168.785 C 600.413 169.27 600.581 169.676 600.917 170.003 C 601.253 170.33 601.682 170.493 602.205 170.493 C 602.746 170.493 603.19 170.33 603.535 170.003 Z M 588.702 170.073 C 589.794 169.606 590.676 168.934 591.348 168.057 C 592.02 167.18 592.356 166.134 592.356 164.921 C 592.356 163.969 592.216 163.162 591.936 162.499 C 591.656 161.836 591.236 161.286 590.676 160.847 C 590.116 160.408 589.411 160.049 588.562 159.769 C 587.713 159.489 586.728 159.246 585.608 159.041 C 584.749 158.873 584.012 158.682 583.396 158.467 C 582.78 158.252 582.309 157.963 581.982 157.599 C 581.655 157.235 581.492 156.773 581.492 156.213 C 581.492 155.746 581.632 155.336 581.912 154.981 C 582.192 154.626 582.607 154.346 583.158 154.141 C 583.709 153.936 584.385 153.833 585.188 153.833 C 585.673 153.833 586.196 153.912 586.756 154.071 C 587.316 154.23 587.848 154.426 588.352 154.659 C 588.856 154.892 589.257 155.14 589.556 155.401 C 589.78 155.569 590.032 155.653 590.312 155.653 C 590.741 155.653 591.115 155.485 591.432 155.149 C 591.749 154.813 591.908 154.44 591.908 154.029 C 591.908 153.469 591.637 152.974 591.096 152.545 C 590.443 151.985 589.598 151.523 588.562 151.159 C 587.526 150.795 586.401 150.613 585.188 150.613 C 583.9 150.613 582.724 150.837 581.66 151.285 C 580.596 151.733 579.751 152.386 579.126 153.245 C 578.501 154.104 578.188 155.14 578.188 156.353 C 578.188 157.156 578.319 157.879 578.58 158.523 C 578.841 159.167 579.229 159.727 579.742 160.203 C 580.255 160.679 580.895 161.071 581.66 161.379 C 582.425 161.687 583.312 161.916 584.32 162.065 C 585.384 162.214 586.261 162.424 586.952 162.695 C 587.643 162.966 588.156 163.297 588.492 163.689 C 588.828 164.081 588.996 164.557 588.996 165.117 C 588.996 165.584 588.819 165.999 588.464 166.363 C 588.109 166.727 587.643 167.016 587.064 167.231 C 586.485 167.446 585.851 167.553 585.16 167.553 C 584.133 167.553 583.27 167.404 582.57 167.105 C 581.87 166.806 581.165 166.368 580.456 165.789 C 580.176 165.565 579.859 165.453 579.504 165.453 C 579.037 165.453 578.65 165.616 578.342 165.943 C 578.034 166.27 577.88 166.648 577.88 167.077 C 577.88 167.338 577.945 167.6 578.076 167.861 C 578.207 168.122 578.393 168.356 578.636 168.561 C 579.588 169.382 580.587 169.956 581.632 170.283 C 582.677 170.61 583.853 170.773 585.16 170.773 C 586.429 170.773 587.61 170.54 588.702 170.073 Z" style="fill: rgb(255, 255, 255);"/>
    <path d="M 530 180 L 690 180 L 690 220 L 530 220 Z M 662.229 190.893 C 661.744 190.893 661.338 191.056 661.011 191.383 C 660.684 191.71 660.521 192.116 660.521 192.601 L 660.521 208.785 C 660.521 209.27 660.67 209.676 660.969 210.003 C 661.268 210.33 661.65 210.493 662.117 210.493 C 662.602 210.493 662.994 210.33 663.293 210.003 C 663.592 209.676 663.741 209.27 663.741 208.785 L 663.741 203.493 L 668.613 203.493 C 669.584 203.493 670.494 203.208 671.343 202.639 C 672.192 202.07 672.878 201.309 673.401 200.357 C 673.924 199.405 674.185 198.35 674.185 197.193 C 674.185 196.017 673.924 194.953 673.401 194.001 C 672.878 193.049 672.192 192.293 671.343 191.733 C 670.494 191.173 669.584 190.893 668.613 190.893 Z M 663.741 200.301 L 663.741 194.113 L 668.613 194.113 C 668.968 194.113 669.313 194.258 669.649 194.547 C 669.985 194.836 670.265 195.214 670.489 195.681 C 670.713 196.148 670.825 196.652 670.825 197.193 C 670.825 197.716 670.713 198.215 670.489 198.691 C 670.265 199.167 669.985 199.554 669.649 199.853 C 669.313 200.152 668.968 200.301 668.613 200.301 Z M 653.558 191.355 C 653.278 191.682 653.138 192.088 653.138 192.573 L 653.138 202.709 C 653.138 203.642 652.923 204.45 652.494 205.131 C 652.065 205.812 651.505 206.34 650.814 206.713 C 650.123 207.086 649.377 207.273 648.574 207.273 C 647.827 207.273 647.123 207.086 646.46 206.713 C 645.797 206.34 645.265 205.812 644.864 205.131 C 644.463 204.45 644.262 203.642 644.262 202.709 L 644.262 192.573 C 644.262 192.088 644.089 191.682 643.744 191.355 C 643.399 191.028 643.011 190.865 642.582 190.865 C 642.059 190.865 641.63 191.028 641.294 191.355 C 640.958 191.682 640.79 192.088 640.79 192.573 L 640.79 202.709 C 640.79 204.258 641.121 205.63 641.784 206.825 C 642.447 208.02 643.361 208.953 644.528 209.625 C 645.695 210.297 647.043 210.633 648.574 210.633 C 650.105 210.633 651.449 210.297 652.606 209.625 C 653.763 208.953 654.673 208.02 655.336 206.825 C 655.999 205.63 656.33 204.258 656.33 202.709 L 656.33 192.573 C 656.33 192.088 656.181 191.682 655.882 191.355 C 655.583 191.028 655.191 190.865 654.706 190.865 C 654.221 190.865 653.838 191.028 653.558 191.355 Z M 630.454 212.171 L 630.454 200.302 L 635.521 200.302 L 627.726 187.829 L 619.93 200.302 L 624.997 200.302 L 624.997 212.171 Z" style="fill: rgb(255, 255, 255);"/>
  </g>
  <g transform="matrix(1, 0, 0, 1, -114.79999033250692, -16.999997338927045)">
    <rect style="fill: rgb(255, 255, 255);" x="630" y="168" width="18" height="6"/>
    <line style="fill: rgb(216, 216, 216); stroke: rgb(255, 255, 255); stroke-width: 3px; stroke-linecap: round; stroke-linejoin: round;" x1="633" y1="160" x2="633" y2="144"/>
    <line style="fill: rgb(216, 216, 216); stroke: rgb(255, 255, 255); stroke-width: 3px; stroke-linecap: round; stroke-linejoin: round;" x1="639" y1="160" x2="639" y2="148"/>
    <line style="fill: rgb(216, 216, 216); stroke: rgb(255, 255, 255); stroke-width: 3px; stroke-linecap: round; stroke-linejoin: round;" x1="645" y1="160" x2="645" y2="140"/>
  </g>
</svg>