<?xml version="1.0" encoding="utf-8"?>
<svg viewBox="504.1775 120 255.8225 106.4105" xmlns="http://www.w3.org/2000/svg">
  <g transform="matrix(1, 0, 0, 1, 99.99996504875025, -19.999995298568308)">
    <path d="M 660 240 L 660 246 L 600 246 L 600 228 L 612 228 L 612 204 L 618 204 L 618 192 L 624 192 L 624 186 L 642 186 L 642 192 L 648 192 L 648 222 L 654 222 L 654 240 Z" style="fill: rgb(255, 255, 255);"/>
    <g>
      <rect style="fill: rgb(255, 255, 255);" x="630" y="168" width="18" height="6"/>
      <path d="M 645 161.5 C 644.172 161.5 643.5 160.828 643.5 160 L 643.5 140 C 643.5 139.172 644.172 138.5 645 138.5 C 645.828 138.5 646.5 139.172 646.5 140 L 646.5 160 C 646.5 160.828 645.828 161.5 645 161.5 Z M 639 161.5 C 638.172 161.5 637.5 160.828 637.5 160 L 637.5 148 C 637.5 147.172 638.172 146.5 639 146.5 C 639.828 146.5 640.5 147.172 640.5 148 L 640.5 160 C 640.5 160.828 639.828 161.5 639 161.5 Z M 633 161.5 C 632.172 161.5 631.5 160.828 631.5 160 L 631.5 144 C 631.5 143.172 632.172 142.5 633 142.5 C 633.828 142.5 634.5 143.172 634.5 144 L 634.5 160 C 634.5 160.828 633.828 161.5 633 161.5 Z" style="fill: rgb(255, 255, 255);"/>
    </g>
  </g>
  <path d="M 550.588 133.589 L 689.82 133.589 L 689.82 226.41 L 504.177 226.41 L 504.177 180 L 550.588 180 L 550.588 133.589 Z M 657.099 168.401 C 657.554 168.021 657.781 167.529 657.781 166.923 C 657.781 166.446 657.629 166.002 657.327 165.591 L 650.089 156.021 L 657.164 149.249 C 657.554 148.86 657.749 148.437 657.749 147.982 C 657.749 147.55 657.581 147.122 657.245 146.699 C 656.91 146.277 656.482 146.066 655.962 146.066 C 655.399 146.066 654.868 146.315 654.37 146.813 L 643.974 157.055 L 643.974 148.21 C 643.974 147.647 643.796 147.176 643.438 146.797 C 643.081 146.417 642.599 146.228 641.992 146.228 C 641.386 146.228 640.888 146.417 640.498 146.797 C 640.108 147.176 639.913 147.647 639.913 148.21 L 639.913 166.988 C 639.913 167.55 640.098 168.021 640.466 168.401 C 640.833 168.78 641.321 168.969 641.927 168.969 C 642.555 168.969 643.054 168.78 643.422 168.401 C 643.79 168.021 643.974 167.55 643.974 166.988 L 643.974 161.873 L 647.049 158.93 L 654.11 168.222 C 654.478 168.72 654.965 168.969 655.572 168.969 C 656.135 168.969 656.644 168.78 657.099 168.401 Z M 632.905 146.391 C 631.996 146.174 631.064 146.066 630.111 146.066 C 628.422 146.066 626.863 146.352 625.433 146.927 C 624.004 147.501 622.763 148.302 621.713 149.331 C 620.663 150.36 619.851 151.578 619.277 152.985 C 618.702 154.393 618.416 155.931 618.416 157.599 C 618.416 159.526 618.73 161.221 619.358 162.683 C 619.986 164.145 620.847 165.363 621.941 166.338 C 623.035 167.312 624.28 168.049 625.677 168.547 C 627.074 169.045 628.552 169.294 630.111 169.294 C 630.739 169.294 631.356 169.245 631.963 169.148 C 632.57 169.051 633.171 168.91 633.766 168.726 C 634.361 168.541 634.942 168.309 635.504 168.027 C 636.046 167.767 636.376 167.351 636.495 166.776 C 636.615 166.202 636.457 165.645 636.024 165.103 C 635.721 164.713 635.348 164.486 634.903 164.421 C 634.459 164.356 634.01 164.432 633.555 164.648 C 633.013 164.93 632.45 165.125 631.866 165.233 C 631.281 165.341 630.696 165.396 630.111 165.396 C 629.05 165.396 628.065 165.239 627.155 164.925 C 626.245 164.61 625.455 164.129 624.783 163.479 C 624.112 162.829 623.587 162.017 623.208 161.042 C 622.828 160.068 622.639 158.92 622.639 157.599 C 622.639 156.472 622.808 155.444 623.143 154.512 C 623.478 153.581 623.971 152.774 624.621 152.092 C 625.271 151.41 626.056 150.884 626.976 150.516 C 627.896 150.149 628.942 149.964 630.111 149.964 C 630.739 149.964 631.34 150.029 631.914 150.159 C 632.489 150.289 633.035 150.474 633.555 150.711 C 634.01 150.928 634.459 151.014 634.903 150.971 C 635.348 150.928 635.71 150.711 635.992 150.322 C 636.403 149.824 636.56 149.271 636.463 148.665 C 636.365 148.058 636.035 147.615 635.472 147.333 C 634.67 146.921 633.815 146.608 632.905 146.391 Z M 601.974 163.869 L 611.662 163.869 L 613.349 167.8 C 613.522 168.212 613.766 168.537 614.08 168.774 C 614.394 169.012 614.746 169.132 615.136 169.132 C 615.591 169.132 616.007 168.959 616.387 168.612 C 616.766 168.265 616.955 167.8 616.955 167.215 C 616.955 166.977 616.901 166.717 616.793 166.435 L 608.801 147.398 C 608.649 146.986 608.405 146.667 608.07 146.439 C 607.735 146.212 607.371 146.098 606.982 146.098 C 606.57 146.055 606.186 146.153 605.828 146.391 C 605.471 146.628 605.205 146.965 605.032 147.398 L 596.943 166.825 C 596.878 167.042 596.845 167.247 596.845 167.442 C 596.845 167.919 596.986 168.32 597.268 168.644 C 597.55 168.969 597.982 169.132 598.567 169.132 C 598.935 169.132 599.276 169.018 599.591 168.791 C 599.905 168.563 600.137 168.244 600.289 167.832 L 601.974 163.869 Z M 610.059 160.133 L 603.563 160.133 L 606.796 152.53 L 610.059 160.133 Z M 589.497 168.401 C 589.898 168.021 590.099 167.55 590.099 166.988 L 590.099 149.964 L 595.199 149.964 C 595.762 149.964 596.233 149.796 596.612 149.461 C 596.992 149.125 597.181 148.675 597.181 148.112 C 597.181 147.55 596.992 147.095 596.612 146.748 C 596.233 146.401 595.762 146.228 595.199 146.228 L 580.775 146.228 C 580.212 146.228 579.741 146.396 579.361 146.732 C 578.982 147.067 578.793 147.517 578.793 148.08 C 578.793 148.643 578.982 149.097 579.361 149.444 C 579.741 149.791 580.212 149.964 580.775 149.964 L 585.875 149.964 L 585.875 166.988 C 585.875 167.55 586.07 168.021 586.46 168.401 C 586.85 168.78 587.348 168.969 587.954 168.969 C 588.582 168.969 589.097 168.78 589.497 168.401 Z M 572.287 168.482 C 573.554 167.94 574.578 167.16 575.357 166.143 C 576.137 165.125 576.527 163.912 576.527 162.504 C 576.527 161.4 576.364 160.463 576.04 159.694 C 575.715 158.925 575.227 158.287 574.578 157.777 C 573.928 157.268 573.11 156.851 572.125 156.527 C 571.14 156.202 569.997 155.92 568.697 155.682 C 567.701 155.487 566.846 155.265 566.131 155.016 C 565.416 154.767 564.87 154.431 564.49 154.009 C 564.111 153.587 563.922 153.05 563.922 152.401 C 563.922 151.859 564.084 151.383 564.409 150.971 C 564.734 150.559 565.215 150.235 565.855 149.997 C 566.494 149.759 567.278 149.639 568.21 149.639 C 568.773 149.639 569.38 149.731 570.029 149.915 C 570.679 150.1 571.296 150.327 571.881 150.598 C 572.466 150.868 572.931 151.156 573.278 151.459 C 573.538 151.654 573.83 151.751 574.155 151.751 C 574.653 151.751 575.087 151.556 575.455 151.166 C 575.823 150.776 576.007 150.344 576.007 149.867 C 576.007 149.217 575.693 148.643 575.065 148.145 C 574.307 147.495 573.327 146.959 572.125 146.537 C 570.923 146.114 569.618 145.903 568.21 145.903 C 566.716 145.903 565.351 146.163 564.117 146.683 C 562.882 147.203 561.902 147.96 561.177 148.957 C 560.451 149.954 560.088 151.156 560.088 152.563 C 560.088 153.495 560.24 154.334 560.543 155.081 C 560.846 155.828 561.296 156.478 561.891 157.03 C 562.487 157.582 563.229 158.037 564.117 158.395 C 565.004 158.752 566.033 159.018 567.203 159.191 C 568.438 159.363 569.455 159.607 570.257 159.922 C 571.059 160.236 571.654 160.62 572.044 161.075 C 572.433 161.53 572.628 162.082 572.628 162.732 C 572.628 163.274 572.423 163.755 572.011 164.177 C 571.599 164.6 571.059 164.935 570.387 165.185 C 569.715 165.434 568.979 165.558 568.178 165.558 C 566.986 165.558 565.985 165.385 565.173 165.038 C 564.36 164.691 563.542 164.183 562.72 163.511 C 562.395 163.252 562.027 163.122 561.615 163.122 C 561.073 163.122 560.624 163.311 560.267 163.69 C 559.91 164.07 559.731 164.508 559.731 165.006 C 559.731 165.309 559.806 165.613 559.958 165.915 C 560.11 166.218 560.326 166.49 560.608 166.728 C 561.713 167.68 562.872 168.346 564.084 168.726 C 565.297 169.105 566.661 169.294 568.178 169.294 C 569.65 169.294 571.02 169.024 572.287 168.482 Z M 657.598 192.639 C 657.035 192.639 656.564 192.828 656.185 193.207 C 655.805 193.587 655.616 194.058 655.616 194.62 L 655.616 213.398 C 655.616 213.961 655.789 214.432 656.136 214.811 C 656.483 215.191 656.926 215.38 657.468 215.38 C 658.031 215.38 658.486 215.191 658.833 214.811 C 659.179 214.432 659.352 213.961 659.352 213.398 L 659.352 207.258 L 665.005 207.258 C 666.132 207.258 667.188 206.927 668.173 206.267 C 669.158 205.607 669.954 204.724 670.56 203.619 C 671.167 202.515 671.47 201.291 671.47 199.948 C 671.47 198.584 671.167 197.349 670.56 196.245 C 669.954 195.14 669.158 194.263 668.173 193.613 C 667.188 192.964 666.132 192.639 665.005 192.639 L 657.598 192.639 Z M 659.352 203.554 L 659.352 196.375 L 665.005 196.375 C 665.417 196.375 665.817 196.543 666.207 196.878 C 666.597 197.214 666.922 197.652 667.182 198.194 C 667.442 198.736 667.572 199.321 667.572 199.948 C 667.572 200.555 667.442 201.134 667.182 201.686 C 666.922 202.239 666.597 202.688 666.207 203.035 C 665.817 203.382 665.417 203.554 665.005 203.554 L 659.352 203.554 Z M 647.537 193.175 C 647.213 193.554 647.05 194.025 647.05 194.588 L 647.05 206.348 C 647.05 207.431 646.801 208.368 646.303 209.159 C 645.805 209.949 645.155 210.561 644.354 210.994 C 643.552 211.427 642.686 211.644 641.755 211.644 C 640.888 211.644 640.071 211.427 639.302 210.994 C 638.533 210.561 637.915 209.949 637.45 209.159 C 636.985 208.368 636.752 207.431 636.752 206.348 L 636.752 194.588 C 636.752 194.025 636.551 193.554 636.151 193.175 C 635.75 192.795 635.3 192.606 634.802 192.606 C 634.195 192.606 633.698 192.795 633.308 193.175 C 632.918 193.554 632.723 194.025 632.723 194.588 L 632.723 206.348 C 632.723 208.146 633.107 209.737 633.876 211.124 C 634.646 212.511 635.706 213.593 637.06 214.373 C 638.414 215.152 639.978 215.542 641.755 215.542 C 643.531 215.542 645.09 215.152 646.433 214.373 C 647.775 213.593 648.831 212.511 649.6 211.124 C 650.37 209.737 650.754 208.146 650.754 206.348 L 650.754 194.588 C 650.754 194.025 650.581 193.554 650.234 193.175 C 649.887 192.795 649.432 192.606 648.869 192.606 C 648.307 192.606 647.862 192.795 647.537 193.175 Z M 620.731 217.327 L 620.731 203.556 L 626.61 203.556 L 617.565 189.084 L 608.52 203.556 L 614.399 203.556 L 614.399 217.327 L 620.731 217.327 Z" style="fill: rgb(255, 255, 255);" transform="matrix(1, 0, 0, 1, 0, 7.105427357601002e-15)"/>
</svg>